{"glyphs":{"0":{"ha":678,"x_min":0,"x_max":576,"o":"m 576 203 q 543 68 576 136 q 441 0 509 0 l 136 0 q 34 68 68 0 q 0 203 0 136 l 0 712 q 34 847 0 779 q 136 916 68 916 l 441 916 q 543 847 509 916 q 576 711 576 779 l 576 203 m 441 237 l 441 678 q 424 797 441 747 q 339 848 407 848 l 237 848 q 153 797 170 848 q 136 677 136 745 l 136 237 q 153 118 136 169 q 237 68 170 68 l 339 68 q 424 119 407 68 q 441 237 441 170 z "},"1":{"ha":373,"x_min":0,"x_max":271,"o":"m 136 848 l 0 847 l 0 916 l 271 916 l 271 0 l 136 -1 l 136 848 z "},"2":{"ha":644,"x_min":0,"x_max":542,"o":"m 542 644 q 508 476 542 544 q 406 408 475 408 l 203 408 q 153 357 169 408 q 136 237 136 306 l 136 68 l 509 68 l 509 0 l 0 0 l 0 238 q 34 407 0 340 q 135 475 68 475 l 338 475 q 390 526 373 475 q 407 645 407 577 q 394 778 407 713 q 339 848 382 843 l 34 848 l 34 916 l 407 916 q 508 831 475 916 q 542 644 542 747 z "},"3":{"ha":577,"x_min":0,"x_max":475,"o":"m 0 848 l 0 916 l 340 916 q 441 847 407 916 q 475 678 475 779 q 441 509 475 577 q 418 475 431 489 q 441 441 431 460 q 475 271 475 372 q 441 68 475 136 q 339 0 407 0 l 0 0 l 0 68 l 272 68 q 323 120 307 71 q 340 271 340 170 q 323 390 340 339 q 272 441 306 441 l 136 441 l 136 509 l 272 509 q 323 561 307 512 q 340 678 340 610 q 323 797 340 746 q 272 848 306 848 l 0 848 z "},"4":{"ha":644,"x_min":0,"x_max":543,"o":"m 475 916 l 475 305 l 543 305 l 543 237 l 475 237 l 475 0 l 339 0 l 339 237 l 0 237 l 0 271 l 271 916 l 475 916 m 339 755 l 150 305 l 339 305 l 339 755 z "},"5":{"ha":644,"x_min":0,"x_max":542,"o":"m 542 272 q 508 84 542 169 q 406 0 474 0 l 34 0 l 34 68 l 339 68 q 394 138 382 73 q 406 271 406 203 q 389 389 406 338 q 338 440 372 440 l 0 441 l 0 916 l 509 916 l 509 848 l 136 848 l 136 509 l 406 509 q 508 440 474 508 q 542 272 542 372 z "},"6":{"ha":645,"x_min":0,"x_max":543,"o":"m 1 237 l 0 644 q 34 847 0 779 q 136 916 68 916 l 475 916 l 475 848 l 203 848 q 153 797 170 848 q 136 644 136 746 l 136 237 l 136 237 q 153 119 136 170 q 204 68 170 68 l 340 68 q 391 118 374 68 q 408 237 408 169 q 390 371 407 304 q 339 440 374 437 l 204 440 l 204 508 l 407 508 q 509 423 475 508 q 543 237 543 338 q 509 67 543 135 q 408 0 475 0 l 136 0 q 34 68 68 0 q 0 237 0 136 l 1 237 z "},"7":{"ha":644,"x_min":0,"x_max":543,"o":"m 377 848 l 0 848 l 0 916 l 543 916 l 136 0 l 0 0 l 377 848 z "},"8":{"ha":646,"x_min":0,"x_max":544,"o":"m 203 848 q 153 797 170 848 q 136 678 136 746 q 152 561 136 610 q 203 509 169 512 l 340 509 q 392 561 375 512 q 408 678 408 610 q 391 797 408 746 q 340 848 374 848 l 203 848 m 203 441 q 153 390 170 441 q 136 271 136 339 q 152 120 136 170 q 203 68 169 71 l 340 68 q 392 120 375 71 q 408 271 408 170 q 391 390 408 339 q 340 441 374 441 l 203 441 m 136 0 q 34 68 68 0 q 0 271 0 136 q 34 441 0 372 q 58 475 44 460 q 34 509 44 489 q 0 678 0 577 q 34 847 0 779 q 136 916 68 916 l 408 916 q 510 847 475 916 q 544 678 544 779 q 510 509 544 577 q 486 475 500 489 q 510 441 500 460 q 544 271 544 372 q 510 68 544 136 q 408 0 475 0 l 136 0 z "},"9":{"ha":646,"x_min":0,"x_max":544,"o":"m 543 678 l 544 271 q 510 68 544 136 q 408 0 475 0 l 68 0 l 68 68 l 340 68 q 391 119 374 68 q 408 271 408 170 l 408 678 l 408 679 q 391 797 408 746 q 340 848 374 848 l 204 848 q 153 797 170 848 q 136 677 136 746 q 153 561 136 610 q 204 509 170 512 l 339 509 l 339 441 l 136 441 q 35 509 68 441 q 0 678 1 577 q 35 848 0 780 q 136 916 69 916 l 408 916 q 510 847 475 916 q 544 678 544 779 l 543 678 z "},"\u0000":{"ha":102,"x_min":0,"x_max":0,"o":""},"\u001d":{"ha":102,"x_min":0,"x_max":0,"o":""}," ":{"ha":678,"x_min":0,"x_max":0,"o":""}," ":{"ha":678,"x_min":0,"x_max":0,"o":""},"!":{"ha":238,"x_min":0,"x_max":136,"o":"m 136 0 l 0 0 l 1 136 l 136 136 l 136 0 m 136 204 l 1 203 l 1 916 l 136 916 l 136 204 z "},"\"":{"ha":441,"x_min":0,"x_max":339,"o":"m 0 916 l 136 916 l 136 780 l 102 644 l 34 644 l 0 780 l 0 916 m 203 916 l 339 916 l 339 780 l 305 644 l 237 644 l 203 780 l 203 916 z "},"#":{"ha":780,"x_min":0,"x_max":678,"o":"m 271 306 l 271 136 l 136 136 l 136 306 l 0 306 l 0 373 l 136 372 l 136 577 l 0 577 l 0 644 l 136 644 l 136 814 l 271 814 l 271 644 l 407 644 l 407 814 l 543 814 l 543 644 l 678 644 l 678 576 l 543 576 l 543 372 l 678 373 l 678 305 l 543 305 l 543 136 l 407 136 l 407 306 l 271 306 m 271 577 l 271 373 l 407 373 l 407 577 l 271 577 z "},"$":{"ha":645,"x_min":0,"x_max":543,"o":"m 203 814 l 203 916 l 339 916 l 339 814 l 509 814 l 509 746 l 204 746 q 153 712 169 746 q 136 611 136 679 q 154 544 137 577 q 205 510 170 510 l 408 510 q 510 458 476 509 q 543 306 543 406 q 509 153 543 203 q 408 102 475 102 l 339 102 l 339 0 l 203 0 l 203 102 l 35 102 l 35 170 l 340 170 q 395 206 382 175 q 408 305 408 237 q 391 407 408 372 q 340 441 374 441 l 136 441 q 35 493 69 442 q 0 611 1 543 q 34 763 0 713 q 135 814 68 814 l 203 814 z "},"%":{"ha":847,"x_min":0,"x_max":745,"o":"m 610 238 q 593 357 610 306 q 509 408 576 408 q 424 356 441 408 q 408 237 408 305 q 424 119 408 169 q 508 68 441 68 q 593 119 576 68 q 610 238 610 170 m 338 679 q 321 798 338 747 q 237 848 304 848 q 153 797 170 848 q 136 678 136 746 q 153 559 136 610 q 237 509 170 509 q 321 560 304 509 q 338 679 338 610 m 458 804 l 509 916 l 644 916 l 449 475 l 610 475 q 711 407 677 475 q 745 271 745 339 l 745 203 q 711 68 745 136 q 610 0 677 0 l 407 0 q 306 68 340 0 q 287 112 294 90 l 237 0 l 102 0 l 298 441 l 136 441 q 34 509 68 441 q 0 644 0 576 l 0 713 q 34 848 0 780 q 136 916 68 916 l 338 916 q 440 848 406 916 q 458 804 451 825 z "},"&":{"ha":645,"x_min":0,"x_max":543,"o":"m 408 68 l 543 68 l 543 0 l 136 0 q 34 68 68 0 q 0 271 0 136 q 34 441 0 372 q 58 475 44 460 q 34 509 44 489 q 0 678 0 577 q 34 847 0 779 q 136 916 68 916 l 340 916 l 340 848 l 203 848 q 153 797 170 848 q 136 678 136 746 q 152 561 136 610 q 203 509 169 512 l 475 509 l 475 441 l 408 441 l 408 68 m 272 441 l 203 441 q 153 390 170 441 q 136 271 136 339 q 152 120 136 170 q 203 68 169 71 l 272 68 l 272 441 z "},"'":{"ha":238,"x_min":0,"x_max":136,"o":"m 0 916 l 136 916 l 136 780 l 102 644 l 34 644 l 0 780 l 0 916 z "},"(":{"ha":441,"x_min":0,"x_max":340,"o":"m 340 -136 l 136 -136 q 34 -68 68 -136 q 0 67 0 0 l 0 848 q 34 983 0 915 q 136 1051 68 1051 l 340 1051 l 340 983 l 237 983 q 153 932 170 983 q 136 813 136 881 l 136 102 q 153 -17 136 33 q 237 -68 170 -68 l 340 -68 l 340 -136 z "},")":{"ha":441,"x_min":0,"x_max":340,"o":"m 0 -68 l 102 -68 q 186 -17 170 -68 q 203 102 203 33 l 203 813 q 187 932 203 881 q 102 983 170 983 l 0 983 l 0 1051 l 204 1051 q 306 983 271 1051 q 340 848 340 915 l 340 67 q 306 -68 340 0 q 204 -136 271 -136 l 0 -136 l 0 -68 z "},"*":{"ha":543,"x_min":0,"x_max":441,"o":"m 113 1051 l 0 1051 l 0 1119 l 113 1119 l 34 1187 l 170 1187 l 220 1143 l 271 1187 l 407 1187 l 328 1119 l 441 1119 l 441 1051 l 328 1051 l 407 983 l 271 983 l 220 1027 l 170 983 l 34 983 l 113 1051 z "},"+":{"ha":509,"x_min":0,"x_max":408,"o":"m 136 441 l 0 441 l 0 507 l 136 508 l 136 678 l 271 678 l 271 508 l 408 509 l 407 441 l 271 441 l 271 271 l 136 271 l 136 441 z "},",":{"ha":238,"x_min":0,"x_max":136,"o":"m 1 1 l 0 136 l 136 136 l 136 0 l 136 0 l 102 -136 l 34 -136 l 0 0 l 1 1 z "},"-":{"ha":509,"x_min":0,"x_max":407,"o":"m 0 507 l 407 509 l 407 441 l 0 441 l 0 507 z "},"­":{"ha":509,"x_min":0,"x_max":407,"o":"m 0 507 l 407 509 l 407 441 l 0 441 l 0 507 z "},".":{"ha":238,"x_min":0,"x_max":136,"o":"m 136 0 l 1 0 l 0 136 l 136 136 l 136 0 z "},"/":{"ha":644,"x_min":0,"x_max":543,"o":"m 407 916 l 543 916 l 136 0 l 0 0 l 407 916 z "},":":{"ha":237,"x_min":0,"x_max":136,"o":"m 0 543 l 136 543 l 136 407 l 0 407 l 0 543 m 0 0 l 0 136 l 136 136 l 136 0 l 0 0 z "},";":{"ha":237,"x_min":0,"x_max":136,"o":"m 0 543 l 136 543 l 136 407 l 0 407 l 0 543 m 0 136 l 136 136 l 136 0 l 102 -136 l 34 -136 l 0 0 l 0 136 z "},";":{"ha":237,"x_min":0,"x_max":136,"o":"m 0 543 l 136 543 l 136 407 l 0 407 l 0 543 m 0 136 l 136 136 l 136 0 l 102 -136 l 34 -136 l 0 0 l 0 136 z "},"<":{"ha":509,"x_min":0,"x_max":407,"o":"m 0 475 l 271 678 l 407 678 l 136 475 l 407 271 l 271 271 l 0 475 z "},"=":{"ha":509,"x_min":0,"x_max":408,"o":"m 0 610 l 408 610 l 408 543 l 0 543 l 0 610 m 0 407 l 408 407 l 408 339 l 0 339 l 0 407 z "},">":{"ha":509,"x_min":0,"x_max":407,"o":"m 136 271 l 0 271 l 271 475 l 0 678 l 136 678 l 407 475 l 136 271 z "},"?":{"ha":610,"x_min":0,"x_max":508,"o":"m 102 203 l 102 237 q 136 407 102 339 q 237 475 170 474 l 305 475 q 356 526 339 475 q 373 645 373 577 q 360 778 373 713 q 305 848 348 843 l 0 848 l 0 916 l 373 916 q 474 831 441 916 q 508 644 508 747 q 474 476 508 544 q 373 407 441 408 l 305 407 q 254 356 271 407 q 238 237 238 305 l 238 203 l 102 203 m 237 136 l 237 0 l 102 0 l 102 136 l 237 136 z "},"@":{"ha":747,"x_min":0,"x_max":645,"o":"m 645 136 l 340 136 q 238 186 272 136 q 204 339 204 237 q 238 491 204 441 q 339 542 272 542 l 441 542 l 442 475 l 408 475 q 357 440 374 474 q 340 339 340 407 q 357 237 340 271 q 408 203 374 203 l 509 203 l 509 576 q 492 678 509 644 q 441 712 475 712 l 204 712 l 204 780 l 498 780 q 493 798 496 789 q 408 848 475 848 l 237 848 q 153 797 170 848 q 136 677 136 745 l 136 237 q 153 118 136 169 q 237 68 170 68 l 577 68 l 577 0 l 136 0 q 34 68 68 0 q 0 203 0 136 l 0 712 q 34 847 0 779 q 136 916 68 916 l 509 916 q 611 847 577 916 q 645 711 645 779 l 645 136 z "},"A":{"ha":644,"x_min":0,"x_max":543,"o":"m 174 203 l 136 0 l 0 0 l 170 916 l 373 916 l 543 0 l 407 0 l 369 203 l 174 203 m 186 271 l 357 271 l 271 732 l 186 271 z "},"B":{"ha":644,"x_min":0,"x_max":543,"o":"m 0 0 l 0 916 l 407 916 q 508 847 474 916 q 543 678 543 779 q 509 509 543 577 q 485 475 498 489 q 509 441 498 460 q 543 271 543 372 q 508 68 543 136 q 406 0 474 0 l 0 0 m 339 509 q 390 561 374 512 q 407 678 407 610 q 390 797 407 746 q 339 848 373 848 l 136 848 l 136 68 l 339 68 q 390 120 374 71 q 407 271 407 170 q 390 390 407 339 q 339 441 373 441 l 203 441 l 203 509 l 339 509 z "},"C":{"ha":577,"x_min":0,"x_max":475,"o":"m 475 0 l 136 0 q 34 68 68 0 q 0 203 0 136 l 0 712 q 34 847 0 779 q 136 916 68 916 l 475 916 l 475 848 l 237 848 q 153 797 170 848 q 136 677 136 745 l 136 237 q 153 118 136 169 q 237 68 170 68 l 475 68 l 475 0 z "},"D":{"ha":644,"x_min":0,"x_max":543,"o":"m 543 202 q 509 67 543 135 q 408 -1 475 -1 l 0 0 l 0 916 l 408 916 q 509 847 475 915 q 543 711 543 779 l 543 202 m 407 237 l 408 677 q 390 797 408 746 q 305 848 373 847 l 136 848 l 136 68 l 305 68 q 390 118 373 68 q 407 237 407 169 z "},"E":{"ha":543,"x_min":0,"x_max":441,"o":"m 441 0 l 0 0 l 0 916 l 441 916 l 441 848 l 136 848 l 136 508 l 338 508 l 338 441 l 136 441 l 136 68 l 441 68 l 441 0 z "},"F":{"ha":543,"x_min":0,"x_max":441,"o":"m 0 0 l 0 916 l 441 916 l 441 848 l 136 848 l 136 508 l 338 508 l 338 441 l 136 441 l 136 0 l 0 0 z "},"G":{"ha":646,"x_min":0,"x_max":544,"o":"m 136 0 q 34 68 68 0 q 0 203 0 136 l 0 712 q 34 847 0 779 q 136 916 68 916 l 475 916 l 475 848 l 237 848 q 153 797 170 848 q 136 677 136 745 l 136 237 q 153 118 136 169 q 237 68 170 68 l 408 68 l 408 441 l 239 441 l 239 509 l 544 509 l 544 0 l 136 0 z "},"H":{"ha":678,"x_min":0,"x_max":576,"o":"m 576 0 l 441 0 l 441 441 l 136 441 l 136 0 l 0 0 l 0 916 l 136 916 l 136 509 l 441 509 l 441 916 l 576 916 l 576 0 z "},"I":{"ha":239,"x_min":0,"x_max":137,"o":"m 0 0 l 0 916 l 137 916 l 136 0 l 0 0 z "},"J":{"ha":578,"x_min":0,"x_max":476,"o":"m 0 68 l 238 68 q 322 118 305 68 q 340 237 339 169 l 340 848 l 205 848 l 205 916 l 476 916 l 476 203 q 441 68 475 136 q 340 0 407 0 l 0 0 l 0 68 z "},"K":{"ha":644,"x_min":0,"x_max":543,"o":"m 136 422 l 136 0 l 0 0 l 0 916 l 136 916 l 136 524 l 407 916 l 543 916 l 237 475 l 543 0 l 407 0 l 136 422 z "},"L":{"ha":543,"x_min":0,"x_max":441,"o":"m 441 0 l 0 0 l 0 916 l 136 916 l 136 68 l 441 68 l 441 0 z "},"M":{"ha":780,"x_min":0,"x_max":678,"o":"m 136 549 l 136 0 l 0 0 l 0 916 l 203 916 l 339 183 l 475 916 l 678 916 l 678 0 l 543 0 l 543 549 l 441 0 l 237 0 l 136 549 z "},"N":{"ha":678,"x_min":0,"x_max":576,"o":"m 136 712 l 136 0 l 0 0 l 0 916 l 203 916 l 441 203 l 441 916 l 576 916 l 576 0 l 373 0 l 136 712 z "},"O":{"ha":678,"x_min":0,"x_max":576,"o":"m 576 203 q 543 68 576 136 q 441 0 509 0 l 136 0 q 34 68 68 0 q 0 203 0 136 l 0 712 q 34 847 0 779 q 136 916 68 916 l 441 916 q 543 847 509 916 q 576 711 576 779 l 576 203 m 441 237 l 441 678 q 424 797 441 747 q 339 848 407 848 l 237 848 q 153 797 170 848 q 136 677 136 745 l 136 237 q 153 118 136 169 q 237 68 170 68 l 339 68 q 424 119 407 68 q 441 237 441 170 z "},"P":{"ha":645,"x_min":0,"x_max":543,"o":"m 543 678 q 509 509 543 577 q 407 441 475 441 l 204 441 l 204 509 l 339 509 q 390 561 374 512 q 408 677 407 610 q 390 797 408 746 q 339 848 373 848 l 136 848 l 136 0 l 0 0 l 0 916 l 408 916 q 509 848 474 916 q 543 678 543 780 z "},"Q":{"ha":678,"x_min":0,"x_max":576,"o":"m 441 237 l 441 678 q 424 797 441 747 q 339 848 407 848 l 237 848 q 153 797 170 848 q 136 677 136 745 l 136 237 q 153 118 136 169 q 237 68 170 68 l 339 68 q 424 119 407 68 q 441 237 441 170 m 283 0 l 136 0 q 34 68 68 0 q 0 203 0 136 l 0 712 q 34 847 0 779 q 136 916 68 916 l 441 916 q 543 847 509 916 q 576 711 576 779 l 576 203 q 543 68 576 136 q 441 0 509 0 l 419 0 l 509 -136 l 374 -136 l 283 0 z "},"R":{"ha":645,"x_min":0,"x_max":543,"o":"m 408 271 l 407 271 q 390 390 407 339 q 339 441 373 441 l 203 441 l 203 509 l 339 509 q 390 561 374 512 q 407 678 407 610 q 390 797 407 746 q 339 848 373 848 l 136 848 l 136 0 l 0 0 l 0 916 l 407 916 q 508 847 474 916 q 543 678 543 779 q 509 509 543 577 q 485 475 498 489 q 509 441 498 460 q 543 272 543 372 l 543 271 l 543 0 l 408 0 l 408 271 z "},"S":{"ha":644,"x_min":0,"x_max":542,"o":"m 542 272 q 508 84 542 169 q 407 0 475 0 l 34 0 l 34 68 l 339 68 q 394 138 382 73 q 407 271 407 203 q 390 389 407 338 q 338 440 373 440 l 135 441 q 34 509 68 441 q 0 678 0 576 q 34 848 0 780 q 135 916 68 916 l 509 916 l 509 848 l 203 848 q 153 797 169 848 q 136 679 136 746 q 153 559 136 610 q 203 509 169 509 l 406 509 q 508 440 475 508 q 542 272 542 372 z "},"T":{"ha":645,"x_min":0,"x_max":543,"o":"m 543 847 l 339 847 l 339 0 l 203 0 l 203 847 l 1 847 l 0 916 l 543 915 l 543 847 z "},"U":{"ha":679,"x_min":0,"x_max":577,"o":"m 136 237 q 153 118 136 169 q 237 68 170 68 l 339 68 q 424 119 407 68 q 441 237 441 170 l 441 916 l 577 916 l 576 203 q 543 68 576 136 q 441 0 509 0 l 136 0 q 34 68 68 0 q 0 203 0 136 l 1 916 l 136 916 l 136 237 z "},"V":{"ha":644,"x_min":0,"x_max":543,"o":"m 170 0 l 0 916 l 136 916 l 271 183 l 407 916 l 543 916 l 373 0 l 170 0 z "},"W":{"ha":1051,"x_min":0,"x_max":949,"o":"m 475 549 l 373 0 l 170 0 l 0 916 l 136 916 l 271 183 l 407 916 l 543 916 l 678 183 l 814 916 l 949 916 l 780 0 l 576 0 l 475 549 z "},"X":{"ha":644,"x_min":0,"x_max":543,"o":"m 203 458 l 0 916 l 136 916 l 271 610 l 407 916 l 543 916 l 339 458 l 543 0 l 407 0 l 271 305 l 136 0 l 0 0 l 203 458 z "},"Y":{"ha":644,"x_min":0,"x_max":543,"o":"m 203 458 l 0 916 l 136 916 l 271 610 l 407 916 l 543 916 l 339 458 l 339 0 l 203 0 l 203 458 z "},"Z":{"ha":644,"x_min":0,"x_max":543,"o":"m 377 848 l 0 848 l 0 916 l 543 916 l 165 68 l 543 68 l 543 0 l 0 0 l 377 848 z "},"[":{"ha":441,"x_min":0,"x_max":340,"o":"m 340 -136 l 1 -136 l 0 1051 l 340 1051 l 340 983 l 136 983 l 136 -68 l 340 -68 l 340 -136 z "},"\\":{"ha":644,"x_min":0,"x_max":543,"o":"m 0 916 l 136 916 l 543 0 l 407 0 l 0 916 z "},"]":{"ha":441,"x_min":0,"x_max":340,"o":"m 0 -68 l 203 -68 l 204 983 l 0 983 l 0 1051 l 340 1051 l 339 -136 l 0 -136 l 0 -68 z "},"^":{"ha":543,"x_min":0,"x_max":441,"o":"m 220 1111 l 136 983 l 0 983 l 136 1187 l 305 1187 l 441 983 l 305 983 l 220 1111 z "},"_":{"ha":543,"x_min":0,"x_max":441,"o":"m 441 -136 l 0 -136 l 0 -68 l 441 -68 l 441 -136 z "},"`":{"ha":543,"x_min":0,"x_max":441,"o":"m 441 983 l 305 983 l 0 1187 l 136 1187 l 441 983 z "},"a":{"ha":678,"x_min":0,"x_max":576,"o":"m 576 509 l 576 0 l 136 0 q 34 51 68 0 q 0 203 0 102 q 34 356 0 305 q 135 406 68 406 l 372 406 l 373 339 l 203 339 q 153 305 170 338 q 136 203 136 271 q 153 102 136 136 q 203 68 170 68 l 440 68 l 441 509 q 424 610 441 576 q 373 644 407 644 l 136 644 l 136 712 l 441 712 q 543 661 509 712 q 576 509 576 610 z "},"b":{"ha":677,"x_min":0,"x_max":576,"o":"m 136 68 l 338 68 q 423 119 406 68 q 440 237 440 170 l 440 475 q 423 593 440 543 q 339 644 406 644 l 203 644 l 203 712 l 441 712 q 542 644 508 712 q 576 509 576 576 l 576 204 q 542 68 576 136 q 440 0 508 0 l 0 0 l 0 916 l 136 916 l 136 68 z "},"c":{"ha":576,"x_min":0,"x_max":475,"o":"m 474 0 l 134 0 q 34 68 67 0 q 0 203 0 136 l 0 509 q 34 644 0 576 q 135 712 68 712 l 475 712 l 475 644 l 237 644 q 152 593 169 644 q 136 474 136 542 l 136 237 q 152 119 136 170 q 236 68 169 68 l 474 68 l 474 0 z "},"d":{"ha":677,"x_min":0,"x_max":576,"o":"m 440 916 l 576 916 l 576 0 l 136 0 q 34 68 68 0 q 0 204 0 136 l 0 509 q 34 644 0 576 q 135 712 68 712 l 372 712 l 372 644 l 237 644 q 153 593 170 644 q 136 475 136 543 l 136 237 q 153 119 136 170 q 237 68 170 68 l 440 68 l 440 916 z "},"e":{"ha":678,"x_min":0,"x_max":576,"o":"m 0 203 l 0 509 q 34 661 0 610 q 136 712 68 712 l 441 712 q 543 661 509 712 q 576 509 576 610 q 543 356 576 407 q 441 306 509 306 l 204 306 l 203 373 l 373 373 q 423 407 406 374 q 441 509 440 441 q 424 610 441 576 q 373 644 407 644 l 203 644 q 153 610 170 644 q 136 509 136 576 l 136 203 q 153 102 136 136 q 203 68 170 68 l 509 68 l 509 0 l 136 0 q 34 51 68 0 q 0 203 0 102 z "},"f":{"ha":373,"x_min":0,"x_max":271,"o":"m 136 576 l 136 -1 l 0 0 l 0 677 q 34 847 0 779 q 135 915 68 915 l 271 916 l 271 847 l 203 847 q 153 796 169 847 q 136 678 136 745 l 136 644 l 271 644 l 271 576 l 136 576 z "},"g":{"ha":678,"x_min":0,"x_max":576,"o":"m 441 0 l 440 644 l 237 644 q 153 593 170 644 q 136 475 136 543 l 136 237 q 153 119 136 170 q 237 68 170 68 l 372 68 l 372 0 l 135 0 q 34 68 68 0 q 0 203 0 136 l 0 508 q 34 644 0 576 q 136 712 68 712 l 576 712 l 576 0 l 576 -68 l 576 -68 q 543 -254 576 -171 q 441 -339 509 -339 l 68 -339 l 68 -271 l 373 -271 q 428 -201 416 -266 q 441 -68 441 -136 l 441 0 z "},"h":{"ha":678,"x_min":0,"x_max":576,"o":"m 136 0 l 0 0 l 0 916 l 136 916 l 136 712 l 441 712 q 542 644 508 712 q 576 509 576 576 l 576 441 l 576 441 l 576 0 l 441 0 l 441 339 l 440 339 l 440 475 q 423 593 440 543 q 339 644 406 644 l 136 644 l 136 0 z "},"i":{"ha":238,"x_min":0,"x_max":136,"o":"m 136 780 l 1 780 l 0 916 l 136 916 l 136 780 m 136 0 l 1 0 l 1 712 l 136 711 l 136 0 z "},"j":{"ha":373,"x_min":0,"x_max":271,"o":"m 136 712 l 271 712 l 271 -68 l 271 -68 q 237 -254 271 -171 q 136 -339 203 -339 l 0 -339 l 0 -271 l 68 -271 q 123 -201 111 -266 q 136 -68 136 -136 l 136 712 m 271 780 l 136 780 l 136 916 l 271 916 l 271 780 z "},"k":{"ha":678,"x_min":0,"x_max":576,"o":"m 0 916 l 136 916 l 136 383 l 441 712 l 576 712 l 237 339 l 543 0 l 407 0 l 165 269 l 136 237 l 136 0 l 0 0 l 0 916 z "},"l":{"ha":239,"x_min":0,"x_max":137,"o":"m 0 0 l 0 916 l 137 916 l 136 0 l 0 0 z "},"m":{"ha":984,"x_min":0,"x_max":882,"o":"m 509 644 l 509 0 l 374 0 l 374 644 l 136 644 l 136 0 l 0 0 l 0 712 l 747 712 q 848 644 814 712 q 882 509 882 576 l 882 0 l 747 0 l 747 475 q 730 594 747 543 q 646 644 713 644 l 509 644 z "},"n":{"ha":679,"x_min":0,"x_max":577,"o":"m 441 475 q 424 594 441 543 q 340 644 407 644 l 136 644 l 136 0 l 0 0 l 0 712 l 441 712 q 543 644 509 712 q 577 509 577 576 l 576 0 l 441 0 l 441 475 z "},"o":{"ha":678,"x_min":0,"x_max":576,"o":"m 576 203 q 543 68 576 136 q 441 0 509 0 l 136 0 q 34 68 68 0 q 0 203 0 136 l 0 509 q 34 644 0 576 q 136 712 68 712 l 441 712 q 543 644 509 712 q 576 508 576 576 l 576 203 m 441 237 l 441 475 q 424 593 441 543 q 339 644 407 644 l 237 644 q 153 593 170 644 q 136 474 136 542 l 136 237 q 153 118 136 169 q 237 68 170 68 l 339 68 q 424 119 407 68 q 441 237 441 170 z "},"p":{"ha":677,"x_min":0,"x_max":576,"o":"m 136 -339 l 0 -339 l 0 712 l 440 712 q 542 644 508 712 q 576 508 576 576 l 576 203 q 542 68 576 136 q 441 0 508 0 l 203 0 l 203 68 l 339 68 q 423 119 406 68 q 440 237 440 170 l 440 475 q 423 593 440 543 q 338 644 406 644 l 136 644 l 136 -339 z "},"q":{"ha":677,"x_min":0,"x_max":576,"o":"m 440 644 l 237 644 q 153 593 170 644 q 136 475 136 543 l 136 237 q 153 119 136 170 q 237 68 170 68 l 372 68 l 372 0 l 135 0 q 34 68 68 0 q 0 203 0 136 l 0 508 q 34 644 0 576 q 136 712 68 712 l 576 712 l 576 -339 l 440 -339 l 440 644 z "},"r":{"ha":441,"x_min":0,"x_max":339,"o":"m 136 0 l 0 0 l 0 474 q 34 644 0 576 q 136 712 68 711 l 339 712 l 339 644 l 203 644 q 153 593 169 644 q 136 475 136 542 l 136 0 z "},"s":{"ha":645,"x_min":0,"x_max":543,"o":"m 543 204 q 509 51 543 102 q 408 0 475 0 l 35 0 l 35 68 l 340 68 q 395 104 382 73 q 408 203 408 136 q 391 305 408 271 q 340 340 374 340 l 136 339 q 35 391 69 340 q 0 509 1 441 q 34 662 0 611 q 135 712 68 712 l 509 712 l 509 644 l 204 644 q 153 611 169 644 q 136 509 136 577 q 154 442 137 475 q 205 408 170 408 l 408 408 q 510 356 476 408 q 543 204 543 304 z "},"t":{"ha":373,"x_min":0,"x_max":271,"o":"m 271 712 l 271 644 l 136 644 l 136 237 q 153 119 136 170 q 203 68 169 68 l 271 68 l 271 -1 l 135 0 q 34 68 68 0 q 0 237 0 136 l 0 915 l 136 916 l 136 712 l 271 712 z "},"u":{"ha":679,"x_min":0,"x_max":577,"o":"m 136 237 q 153 118 136 169 q 237 68 170 68 l 441 68 l 441 712 l 577 712 l 577 0 l 136 0 q 34 68 68 0 q 0 203 0 136 l 1 712 l 136 712 l 136 237 z "},"v":{"ha":644,"x_min":0,"x_max":543,"o":"m 170 0 l 0 712 l 136 712 l 271 142 l 407 712 l 543 712 l 373 0 l 170 0 z "},"w":{"ha":1051,"x_min":0,"x_max":949,"o":"m 475 427 l 373 0 l 170 0 l 0 712 l 136 712 l 271 142 l 407 712 l 543 712 l 678 142 l 814 712 l 949 712 l 780 0 l 576 0 l 475 427 z "},"x":{"ha":644,"x_min":0,"x_max":543,"o":"m 203 356 l 0 712 l 136 712 l 271 475 l 407 712 l 543 712 l 339 356 l 543 0 l 407 0 l 271 237 l 136 0 l 0 0 l 203 356 z "},"y":{"ha":644,"x_min":0,"x_max":543,"o":"m 270 241 l 407 712 l 543 712 l 338 5 l 339 0 l 336 0 l 237 -339 l 102 -339 l 202 5 l 0 712 l 136 712 l 270 241 z "},"z":{"ha":644,"x_min":0,"x_max":543,"o":"m 368 644 l 0 644 l 0 712 l 543 712 l 174 68 l 543 68 l 543 0 l 0 0 l 368 644 z "},"{":{"ha":509,"x_min":0,"x_max":407,"o":"m 271 271 l 271 102 q 288 -17 271 33 q 372 -68 305 -68 l 407 -68 l 407 -136 l 271 -136 q 169 -68 203 -136 q 135 67 135 0 l 135 271 l 136 271 q 119 390 136 339 q 68 441 102 441 l 0 441 l 0 509 l 68 509 q 119 561 102 512 q 136 678 136 610 l 135 678 l 135 848 q 169 983 135 915 q 271 1051 203 1051 l 407 1051 l 407 983 l 372 983 q 288 932 304 983 q 271 813 271 881 l 271 678 q 237 509 271 577 q 214 475 227 489 q 237 441 227 460 q 271 271 271 372 z "},"|":{"ha":238,"x_min":0,"x_max":136,"o":"m 1 -136 l 0 1051 l 136 1051 l 136 -136 l 1 -136 z "},"}":{"ha":509,"x_min":0,"x_max":407,"o":"m 136 271 q 170 441 136 372 q 193 475 180 460 q 170 509 180 489 q 136 678 136 577 l 136 813 q 119 932 136 881 q 35 983 102 983 l 0 983 l 0 1051 l 136 1051 q 238 983 203 1051 q 272 848 272 915 l 272 678 l 271 678 q 288 561 271 610 q 339 509 304 512 l 407 509 l 407 441 l 339 441 q 288 390 305 441 q 271 271 271 339 l 272 271 l 272 67 q 238 -68 272 0 q 136 -136 203 -136 l 0 -136 l 0 -68 l 35 -68 q 119 -17 102 -68 q 136 102 136 33 l 136 271 z "},"~":{"ha":644,"x_min":0,"x_max":542,"o":"m 203 1154 q 372 1119 338 1119 q 440 1187 406 1119 l 542 1120 q 406 1017 473 1018 l 338 1017 q 168 1051 237 1050 q 102 983 134 1051 l 0 1051 q 135 1153 67 1153 l 203 1154 z "},"¡":{"ha":238,"x_min":0,"x_max":136,"o":"m 136 780 l 1 780 l 0 916 l 136 916 l 136 780 m 136 0 l 1 0 l 1 712 l 136 711 l 136 0 z "},"¢":{"ha":576,"x_min":0,"x_max":475,"o":"m 203 814 l 203 916 l 339 916 l 339 814 l 475 814 l 475 746 l 237 746 q 152 695 169 746 q 136 576 136 644 l 136 339 q 152 220 136 271 q 236 170 169 170 l 474 170 l 474 102 l 339 102 l 339 0 l 203 0 l 203 102 l 134 102 q 34 170 67 102 q 0 305 0 237 l 0 610 q 34 746 0 678 q 135 814 68 814 l 203 814 z "},"£":{"ha":576,"x_min":0,"x_max":475,"o":"m 0 0 l 0 68 l 136 68 l 136 441 l 0 441 l 0 509 l 136 509 l 136 678 q 170 848 136 780 q 271 916 203 916 l 475 916 l 475 848 l 338 848 q 288 797 304 848 q 272 679 272 746 l 272 509 l 475 509 l 475 441 l 271 441 l 271 68 l 475 68 l 475 0 l 0 0 z "},"¤":{"ha":644,"x_min":0,"x_max":543,"o":"m 390 407 l 389 509 q 372 628 389 577 q 288 679 355 679 l 254 680 q 169 628 186 680 q 153 509 153 577 l 153 408 q 170 289 153 339 q 254 238 187 238 l 288 238 q 373 289 356 238 q 390 407 390 339 m 211 170 l 136 0 l 0 0 l 85 193 q 52 238 66 210 q 17 373 17 306 l 16 544 q 51 680 16 611 q 85 724 65 708 l 0 916 l 136 916 l 210 747 l 332 747 l 407 916 l 543 916 l 457 724 q 491 679 477 707 q 525 543 525 610 l 526 372 q 492 237 526 305 q 457 192 477 209 l 543 0 l 407 0 l 332 170 l 211 170 z "},"¥":{"ha":644,"x_min":0,"x_max":543,"o":"m 203 441 l 203 458 l 0 916 l 136 916 l 271 610 l 407 916 l 543 916 l 339 458 l 339 441 l 475 441 l 475 373 l 339 373 l 339 237 l 475 237 l 475 170 l 339 170 l 339 0 l 203 0 l 203 170 l 68 170 l 68 237 l 203 237 l 203 373 l 68 373 l 68 441 l 203 441 z "},"¦":{"ha":238,"x_min":0,"x_max":136,"o":"m 136 441 l 136 -136 l 1 -136 l 1 441 l 136 441 m 0 508 l 0 1051 l 136 1051 l 136 508 l 0 508 z "},"§":{"ha":644,"x_min":0,"x_max":543,"o":"m 390 407 l 389 509 q 372 628 389 577 q 288 679 355 679 l 254 680 q 169 628 186 680 q 153 509 153 577 l 153 408 q 170 289 153 339 q 254 238 187 238 l 288 238 q 373 289 356 238 q 390 407 390 339 m 526 396 q 542 272 542 342 l 543 203 q 508 17 542 101 q 407 -68 475 -68 l 34 -68 l 34 0 l 339 0 q 395 71 382 5 q 406 170 404 120 q 391 170 399 170 l 153 170 q 51 238 85 170 q 17 373 17 306 l 16 544 l 16 553 q 0 678 0 608 l 0 746 q 34 916 0 848 q 135 983 68 983 l 509 984 l 509 916 l 203 916 q 153 865 169 916 q 136 747 136 814 l 136 746 q 152 747 144 747 l 389 747 q 491 679 457 747 q 525 543 525 610 l 526 396 z "},"¨":{"ha":509,"x_min":0,"x_max":407,"o":"m 0 1119 l 136 1119 l 136 983 l 0 983 l 0 1119 m 271 1119 l 407 1119 l 407 983 l 271 983 l 271 1119 z "},"©":{"ha":543,"x_min":0,"x_max":441,"o":"m 323 458 l 153 458 q 102 492 119 458 q 85 559 85 526 l 85 814 q 102 882 85 848 q 153 916 119 916 l 323 916 l 323 882 l 203 882 q 161 856 170 882 q 153 797 153 831 l 153 576 q 162 517 153 543 q 203 492 170 492 l 323 492 l 323 458 m 220 1017 q 376 920 312 1017 q 441 687 441 823 q 376 453 441 550 q 220 356 312 356 q 64 453 129 356 q 0 687 0 550 q 64 920 0 823 q 220 1017 129 1017 m 220 983 q 89 897 143 983 q 34 687 34 810 q 89 477 34 564 q 220 390 143 390 q 352 477 298 390 q 407 687 407 564 q 352 897 407 810 q 220 983 298 983 z "},"ª":{"ha":1119,"x_min":0,"x_max":1017,"o":"m 136 0 q 0 136 0 0 l 0 882 q 136 1017 0 1017 l 882 1017 q 1017 882 1017 1017 l 1017 136 q 882 0 1017 0 l 136 0 m 882 17 q 1000 136 1000 17 l 1000 882 q 882 1000 1000 1000 l 136 1000 q 17 882 18 1000 l 17 136 q 136 17 18 17 l 882 17 z "},"«":{"ha":746,"x_min":0,"x_max":644,"o":"m 0 475 l 271 678 l 407 678 l 136 475 l 407 271 l 271 271 l 0 475 m 237 475 l 509 678 l 644 678 l 373 475 l 644 271 l 509 271 l 237 475 z "},"¬":{"ha":1119,"x_min":0,"x_max":1017,"o":"m 136 0 q 0 136 0 0 l 0 882 q 136 1017 0 1017 l 882 1017 q 1017 882 1017 1017 l 1017 136 q 882 0 1017 0 l 136 0 m 882 17 q 1000 136 1000 17 l 1000 882 q 882 1000 1000 1000 l 136 1000 q 17 882 18 1000 l 17 136 q 136 17 18 17 l 882 17 z "},"®":{"ha":543,"x_min":0,"x_max":441,"o":"m 357 484 q 407 687 407 569 q 352 897 407 810 q 220 983 298 983 q 102 916 152 983 l 288 916 q 339 882 322 916 q 356 797 356 848 q 339 713 356 747 q 328 695 334 703 q 339 678 334 688 q 356 594 356 644 l 357 593 l 357 484 m 85 890 q 34 687 34 806 q 85 483 34 568 l 85 890 m 102 458 q 220 390 152 390 q 339 458 289 390 l 289 458 l 289 593 l 288 593 q 280 653 288 627 q 254 678 271 678 l 186 678 l 186 712 l 254 712 q 280 739 272 714 q 288 797 288 763 q 280 856 288 831 q 254 882 271 882 l 153 882 l 153 458 l 102 458 m 376 920 q 409 872 376 920 q 441 687 441 823 q 376 453 441 550 q 220 356 312 356 q 64 453 129 356 q 0 687 0 550 q 64 920 0 823 q 220 1017 129 1017 q 376 920 312 1017 z "},"¯":{"ha":1119,"x_min":0,"x_max":1017,"o":"m 136 0 q 0 136 0 0 l 0 882 q 136 1017 0 1017 l 882 1017 q 1017 882 1017 1017 l 1017 136 q 882 0 1017 0 l 136 0 m 882 17 q 1000 136 1000 17 l 1000 882 q 882 1000 1000 1000 l 136 1000 q 17 882 18 1000 l 17 136 q 136 17 18 17 l 882 17 z "},"°":{"ha":479,"x_min":0,"x_max":377,"o":"m 189 930 q 89 889 131 930 q 47 789 47 848 q 89 689 47 730 q 189 648 130 648 q 289 689 248 648 q 330 789 330 730 q 289 889 330 848 q 189 930 248 930 m 189 978 q 322 923 267 978 q 377 789 377 867 q 321 656 377 712 q 188 601 266 601 q 54 656 109 601 q 0 789 0 711 q 55 923 0 868 q 189 978 111 978 z "},"±":{"ha":1119,"x_min":0,"x_max":1017,"o":"m 136 0 q 0 136 0 0 l 0 882 q 136 1017 0 1017 l 882 1017 q 1017 882 1017 1017 l 1017 136 q 882 0 1017 0 l 136 0 m 882 17 q 1000 136 1000 17 l 1000 882 q 882 1000 1000 1000 l 136 1000 q 17 882 18 1000 l 17 136 q 136 17 18 17 l 882 17 z "},"²":{"ha":1119,"x_min":0,"x_max":1017,"o":"m 136 0 q 0 136 0 0 l 0 882 q 136 1017 0 1017 l 882 1017 q 1017 882 1017 1017 l 1017 136 q 882 0 1017 0 l 136 0 m 882 17 q 1000 136 1000 17 l 1000 882 q 882 1000 1000 1000 l 136 1000 q 17 882 18 1000 l 17 136 q 136 17 18 17 l 882 17 z "},"³":{"ha":1119,"x_min":0,"x_max":1017,"o":"m 136 0 q 0 136 0 0 l 0 882 q 136 1017 0 1017 l 882 1017 q 1017 882 1017 1017 l 1017 136 q 882 0 1017 0 l 136 0 m 882 17 q 1000 136 1000 17 l 1000 882 q 882 1000 1000 1000 l 136 1000 q 17 882 18 1000 l 17 136 q 136 17 18 17 l 882 17 z "},"´":{"ha":543,"x_min":0,"x_max":441,"o":"m 305 1187 l 441 1187 l 136 983 l 0 983 l 305 1187 z "},"µ":{"ha":679,"x_min":0,"x_max":577,"o":"m 1 184 q 0 203 0 193 l 1 712 l 136 712 l 136 237 q 153 118 136 169 q 237 68 170 68 l 441 68 l 441 712 l 577 712 l 577 0 l 136 0 l 136 -339 l 1 -339 l 1 184 z "},"¶":{"ha":669,"x_min":0,"x_max":567,"o":"m 567 973 l 567 926 l 481 926 l 481 0 l 425 0 l 425 926 l 313 926 l 313 0 l 256 0 l 256 500 q 69 570 138 506 q 0 736 0 634 q 73 908 0 843 q 267 973 146 973 l 567 973 z "},"·":{"ha":237,"x_min":0,"x_max":136,"o":"m 0 543 l 136 543 l 136 407 l 0 407 l 0 543 z "},"∙":{"ha":237,"x_min":0,"x_max":136,"o":"m 0 543 l 136 543 l 136 407 l 0 407 l 0 543 z "},"¸":{"ha":373,"x_min":0,"x_max":271,"o":"m 136 0 l 271 0 l 271 -68 l 271 -68 q 237 -254 271 -171 q 136 -339 203 -339 l 0 -339 l 0 -271 l 68 -271 q 123 -201 111 -266 q 136 -68 136 -136 l 136 0 z "},"¹":{"ha":1119,"x_min":0,"x_max":1017,"o":"m 136 0 q 0 136 0 0 l 0 882 q 136 1017 0 1017 l 882 1017 q 1017 882 1017 1017 l 1017 136 q 882 0 1017 0 l 136 0 m 882 17 q 1000 136 1000 17 l 1000 882 q 882 1000 1000 1000 l 136 1000 q 17 882 18 1000 l 17 136 q 136 17 18 17 l 882 17 z "},"º":{"ha":1119,"x_min":0,"x_max":1017,"o":"m 136 0 q 0 136 0 0 l 0 882 q 136 1017 0 1017 l 882 1017 q 1017 882 1017 1017 l 1017 136 q 882 0 1017 0 l 136 0 m 882 17 q 1000 136 1000 17 l 1000 882 q 882 1000 1000 1000 l 136 1000 q 17 882 18 1000 l 17 136 q 136 17 18 17 l 882 17 z "},"»":{"ha":746,"x_min":0,"x_max":644,"o":"m 373 271 l 237 271 l 509 475 l 237 678 l 373 678 l 644 475 l 373 271 m 136 271 l 0 271 l 271 475 l 0 678 l 136 678 l 407 475 l 136 271 z "},"¼":{"ha":1119,"x_min":0,"x_max":1017,"o":"m 136 0 q 0 136 0 0 l 0 882 q 136 1017 0 1017 l 882 1017 q 1017 882 1017 1017 l 1017 136 q 882 0 1017 0 l 136 0 m 882 17 q 1000 136 1000 17 l 1000 882 q 882 1000 1000 1000 l 136 1000 q 17 882 18 1000 l 17 136 q 136 17 18 17 l 882 17 z "},"½":{"ha":1119,"x_min":0,"x_max":1017,"o":"m 136 0 q 0 136 0 0 l 0 882 q 136 1017 0 1017 l 882 1017 q 1017 882 1017 1017 l 1017 136 q 882 0 1017 0 l 136 0 m 882 17 q 1000 136 1000 17 l 1000 882 q 882 1000 1000 1000 l 136 1000 q 17 882 18 1000 l 17 136 q 136 17 18 17 l 882 17 z "},"¾":{"ha":1119,"x_min":0,"x_max":1017,"o":"m 136 0 q 0 136 0 0 l 0 882 q 136 1017 0 1017 l 882 1017 q 1017 882 1017 1017 l 1017 136 q 882 0 1017 0 l 136 0 m 882 17 q 1000 136 1000 17 l 1000 882 q 882 1000 1000 1000 l 136 1000 q 17 882 18 1000 l 17 136 q 136 17 18 17 l 882 17 z "},"¿":{"ha":610,"x_min":0,"x_max":508,"o":"m 406 713 l 406 679 q 372 510 406 577 q 271 441 338 442 l 203 441 q 152 390 169 441 q 135 271 135 339 q 148 138 135 203 q 203 68 160 73 l 508 68 l 508 0 l 135 0 q 34 85 67 0 q 0 272 0 170 q 34 440 0 372 q 135 509 67 508 l 203 509 q 254 560 237 509 q 270 680 270 611 l 270 713 l 406 713 m 271 781 l 271 916 l 406 916 l 406 781 l 271 781 z "},"À":{"ha":644,"x_min":0,"x_max":543,"o":"m 174 203 l 136 0 l 0 0 l 170 916 l 373 916 l 543 0 l 407 0 l 369 203 l 174 203 m 186 271 l 357 271 l 271 732 l 186 271 m 492 983 l 356 983 l 51 1187 l 186 1187 l 492 983 z "},"Á":{"ha":644,"x_min":0,"x_max":543,"o":"m 174 203 l 136 0 l 0 0 l 170 916 l 373 916 l 543 0 l 407 0 l 369 203 l 174 203 m 186 271 l 357 271 l 271 732 l 186 271 m 356 1187 l 492 1187 l 186 983 l 51 983 l 356 1187 z "},"Â":{"ha":644,"x_min":0,"x_max":543,"o":"m 174 203 l 136 0 l 0 0 l 170 916 l 373 916 l 543 0 l 407 0 l 369 203 l 174 203 m 186 271 l 357 271 l 271 732 l 186 271 m 271 1111 l 186 983 l 51 983 l 186 1187 l 356 1187 l 492 983 l 356 983 l 271 1111 z "},"Ã":{"ha":644,"x_min":0,"x_max":543,"o":"m 174 203 l 136 0 l 0 0 l 170 916 l 373 916 l 543 0 l 407 0 l 369 203 l 174 203 m 186 271 l 357 271 l 271 732 l 186 271 m 203 1154 q 373 1119 339 1119 q 441 1187 407 1119 l 543 1120 q 407 1017 474 1018 l 338 1017 q 169 1051 237 1050 q 102 983 135 1051 l 1 1051 q 136 1153 68 1153 l 203 1154 z "},"Ä":{"ha":644,"x_min":0,"x_max":543,"o":"m 174 203 l 136 0 l 0 0 l 170 916 l 373 916 l 543 0 l 407 0 l 369 203 l 174 203 m 186 271 l 357 271 l 271 732 l 186 271 m 68 1119 l 203 1119 l 203 983 l 68 983 l 68 1119 m 339 1119 l 475 1119 l 475 983 l 339 983 l 339 1119 z "},"Å":{"ha":644,"x_min":0,"x_max":543,"o":"m 174 203 l 136 0 l 0 0 l 170 916 l 373 916 l 543 0 l 407 0 l 369 203 l 174 203 m 186 271 l 357 271 l 271 732 l 186 271 m 203 1119 l 339 1119 l 339 983 l 203 983 l 203 1119 z "},"Æ":{"ha":882,"x_min":0,"x_max":780,"o":"m 339 848 l 305 848 l 186 271 l 339 271 l 339 848 m 339 203 l 174 203 l 136 0 l 0 0 l 170 916 l 780 916 l 780 848 l 475 848 l 475 508 l 677 508 l 677 441 l 475 441 l 475 68 l 780 68 l 780 0 l 339 0 l 339 203 z "},"Ç":{"ha":577,"x_min":0,"x_max":475,"o":"m 239 0 l 136 0 q 34 68 68 0 q 0 203 0 136 l 0 712 q 34 847 0 779 q 136 916 68 916 l 475 916 l 475 848 l 237 848 q 153 797 170 848 q 136 677 136 745 l 136 237 q 153 118 136 169 q 237 68 170 68 l 475 68 l 475 0 l 374 0 l 374 -68 l 374 -68 q 340 -254 374 -171 q 239 -339 307 -339 l 103 -339 l 103 -271 l 171 -271 q 226 -201 214 -266 q 239 -68 239 -136 l 239 0 z "},"È":{"ha":543,"x_min":0,"x_max":441,"o":"m 441 0 l 0 0 l 0 916 l 441 916 l 441 848 l 136 848 l 136 508 l 338 508 l 338 441 l 136 441 l 136 68 l 441 68 l 441 0 m 441 983 l 306 983 l 1 1187 l 136 1187 l 441 983 z "},"É":{"ha":543,"x_min":0,"x_max":441,"o":"m 441 0 l 0 0 l 0 916 l 441 916 l 441 848 l 136 848 l 136 508 l 338 508 l 338 441 l 136 441 l 136 68 l 441 68 l 441 0 m 306 1187 l 441 1187 l 136 983 l 1 983 l 306 1187 z "},"Ê":{"ha":543,"x_min":0,"x_max":441,"o":"m 441 0 l 0 0 l 0 916 l 441 916 l 441 848 l 136 848 l 136 508 l 338 508 l 338 441 l 136 441 l 136 68 l 441 68 l 441 0 m 221 1111 l 136 983 l 1 983 l 136 1187 l 306 1187 l 441 983 l 306 983 l 221 1111 z "},"Ë":{"ha":543,"x_min":0,"x_max":441,"o":"m 441 0 l 0 0 l 0 916 l 441 916 l 441 848 l 136 848 l 136 508 l 338 508 l 338 441 l 136 441 l 136 68 l 441 68 l 441 0 m 18 1119 l 153 1119 l 153 983 l 18 983 l 18 1119 m 289 1119 l 425 1119 l 425 983 l 289 983 l 289 1119 z "},"Ì":{"ha":543,"x_min":0,"x_max":441,"o":"m 152 0 l 152 916 l 289 916 l 288 0 l 152 0 m 441 983 l 305 983 l 0 1187 l 136 1187 l 441 983 z "},"Í":{"ha":543,"x_min":0,"x_max":441,"o":"m 152 0 l 152 916 l 289 916 l 288 0 l 152 0 m 305 1187 l 441 1187 l 136 983 l 0 983 l 305 1187 z "},"Î":{"ha":543,"x_min":0,"x_max":441,"o":"m 152 0 l 152 916 l 289 916 l 288 0 l 152 0 m 220 1111 l 136 983 l 0 983 l 136 1187 l 305 1187 l 441 983 l 305 983 l 220 1111 z "},"Ï":{"ha":509,"x_min":0,"x_max":407,"o":"m 135 0 l 135 916 l 272 916 l 271 0 l 135 0 m 0 1119 l 136 1119 l 136 983 l 0 983 l 0 1119 m 271 1119 l 407 1119 l 407 983 l 271 983 l 271 1119 z "},"Ð":{"ha":780,"x_min":0,"x_max":678,"o":"m 271 441 l 271 69 l 441 68 q 526 119 509 68 q 543 237 543 170 l 543 678 q 526 797 543 747 q 441 848 509 848 l 271 848 l 271 508 l 407 509 l 407 441 l 271 441 m 136 508 l 136 916 l 543 916 q 644 847 610 916 q 678 711 678 779 l 678 203 q 644 68 678 136 q 543 0 610 0 l 136 1 l 136 441 l 0 441 l 0 507 l 136 508 z "},"Ñ":{"ha":678,"x_min":0,"x_max":576,"o":"m 136 712 l 136 0 l 0 0 l 0 916 l 203 916 l 441 203 l 441 916 l 576 916 l 576 0 l 373 0 l 136 712 m 220 1154 q 389 1119 355 1119 q 457 1187 423 1119 l 559 1120 q 423 1017 490 1018 l 355 1017 q 185 1051 254 1050 q 119 983 151 1051 l 17 1051 q 152 1153 84 1153 l 220 1154 z "},"Ò":{"ha":678,"x_min":0,"x_max":576,"o":"m 576 203 q 543 68 576 136 q 441 0 509 0 l 136 0 q 34 68 68 0 q 0 203 0 136 l 0 712 q 34 847 0 779 q 136 916 68 916 l 441 916 q 543 847 509 916 q 576 711 576 779 l 576 203 m 441 237 l 441 678 q 424 797 441 747 q 339 848 407 848 l 237 848 q 153 797 170 848 q 136 677 136 745 l 136 237 q 153 118 136 169 q 237 68 170 68 l 339 68 q 424 119 407 68 q 441 237 441 170 m 509 983 l 374 983 l 68 1187 l 204 1187 l 509 983 z "},"Ó":{"ha":678,"x_min":0,"x_max":576,"o":"m 576 203 q 543 68 576 136 q 441 0 509 0 l 136 0 q 34 68 68 0 q 0 203 0 136 l 0 712 q 34 847 0 779 q 136 916 68 916 l 441 916 q 543 847 509 916 q 576 711 576 779 l 576 203 m 441 237 l 441 678 q 424 797 441 747 q 339 848 407 848 l 237 848 q 153 797 170 848 q 136 677 136 745 l 136 237 q 153 118 136 169 q 237 68 170 68 l 339 68 q 424 119 407 68 q 441 237 441 170 m 374 1187 l 509 1187 l 204 983 l 68 983 l 374 1187 z "},"Ô":{"ha":678,"x_min":0,"x_max":576,"o":"m 576 203 q 543 68 576 136 q 441 0 509 0 l 136 0 q 34 68 68 0 q 0 203 0 136 l 0 712 q 34 847 0 779 q 136 916 68 916 l 441 916 q 543 847 509 916 q 576 711 576 779 l 576 203 m 441 237 l 441 678 q 424 797 441 747 q 339 848 407 848 l 237 848 q 153 797 170 848 q 136 677 136 745 l 136 237 q 153 118 136 169 q 237 68 170 68 l 339 68 q 424 119 407 68 q 441 237 441 170 m 289 1111 l 204 983 l 68 983 l 204 1187 l 374 1187 l 509 983 l 374 983 l 289 1111 z "},"Õ":{"ha":678,"x_min":0,"x_max":576,"o":"m 576 203 q 543 68 576 136 q 441 0 509 0 l 136 0 q 34 68 68 0 q 0 203 0 136 l 0 712 q 34 847 0 779 q 136 916 68 916 l 441 916 q 543 847 509 916 q 576 711 576 779 l 576 203 m 441 237 l 441 678 q 424 797 441 747 q 339 848 407 848 l 237 848 q 153 797 170 848 q 136 677 136 745 l 136 237 q 153 118 136 169 q 237 68 170 68 l 339 68 q 424 119 407 68 q 441 237 441 170 m 220 1154 q 390 1119 356 1119 q 458 1187 424 1119 l 559 1120 q 424 1017 491 1018 l 355 1017 q 186 1051 254 1050 q 119 983 152 1051 l 18 1051 q 153 1153 85 1153 l 220 1154 z "},"Ö":{"ha":678,"x_min":0,"x_max":576,"o":"m 576 203 q 543 68 576 136 q 441 0 509 0 l 136 0 q 34 68 68 0 q 0 203 0 136 l 0 712 q 34 847 0 779 q 136 916 68 916 l 441 916 q 543 847 509 916 q 576 711 576 779 l 576 203 m 441 237 l 441 678 q 424 797 441 747 q 339 848 407 848 l 237 848 q 153 797 170 848 q 136 677 136 745 l 136 237 q 153 118 136 169 q 237 68 170 68 l 339 68 q 424 119 407 68 q 441 237 441 170 m 85 1119 l 221 1119 l 221 983 l 85 983 l 85 1119 m 357 1119 l 492 1119 l 492 983 l 357 983 l 357 1119 z "},"×":{"ha":644,"x_min":0,"x_max":543,"o":"m 203 458 l 0 814 l 136 814 l 271 576 l 407 814 l 543 814 l 339 458 l 543 102 l 407 102 l 271 339 l 136 102 l 0 102 l 203 458 z "},"Ø":{"ha":679,"x_min":0,"x_max":577,"o":"m 401 831 q 339 848 378 848 l 237 848 q 153 797 170 848 q 136 677 136 745 l 136 281 l 401 831 m 177 84 q 237 68 199 68 l 339 68 q 424 119 407 68 q 441 237 441 170 l 441 633 l 177 84 m 543 846 q 576 711 576 779 l 576 203 q 543 68 576 136 q 441 0 509 0 l 1 0 l 34 68 q 0 203 0 136 l 0 712 q 34 847 0 779 q 136 916 68 916 l 577 916 l 543 846 z "},"Ù":{"ha":679,"x_min":0,"x_max":577,"o":"m 136 237 q 153 118 136 169 q 237 68 170 68 l 339 68 q 424 119 407 68 q 441 237 441 170 l 441 916 l 577 916 l 576 203 q 543 68 576 136 q 441 0 509 0 l 136 0 q 34 68 68 0 q 0 203 0 136 l 1 916 l 136 916 l 136 237 m 509 983 l 374 983 l 68 1187 l 204 1187 l 509 983 z "},"Ú":{"ha":679,"x_min":0,"x_max":577,"o":"m 136 237 q 153 118 136 169 q 237 68 170 68 l 339 68 q 424 119 407 68 q 441 237 441 170 l 441 916 l 577 916 l 576 203 q 543 68 576 136 q 441 0 509 0 l 136 0 q 34 68 68 0 q 0 203 0 136 l 1 916 l 136 916 l 136 237 m 374 1187 l 509 1187 l 204 983 l 68 983 l 374 1187 z "},"Û":{"ha":679,"x_min":0,"x_max":577,"o":"m 136 237 q 153 118 136 169 q 237 68 170 68 l 339 68 q 424 119 407 68 q 441 237 441 170 l 441 916 l 577 916 l 576 203 q 543 68 576 136 q 441 0 509 0 l 136 0 q 34 68 68 0 q 0 203 0 136 l 1 916 l 136 916 l 136 237 m 289 1111 l 204 983 l 68 983 l 204 1187 l 374 1187 l 509 983 l 374 983 l 289 1111 z "},"Ü":{"ha":679,"x_min":0,"x_max":577,"o":"m 136 237 q 153 118 136 169 q 237 68 170 68 l 339 68 q 424 119 407 68 q 441 237 441 170 l 441 916 l 577 916 l 576 203 q 543 68 576 136 q 441 0 509 0 l 136 0 q 34 68 68 0 q 0 203 0 136 l 1 916 l 136 916 l 136 237 m 85 1119 l 221 1119 l 221 983 l 85 983 l 85 1119 m 357 1119 l 492 1119 l 492 983 l 357 983 l 357 1119 z "},"Ý":{"ha":644,"x_min":0,"x_max":543,"o":"m 203 458 l 0 916 l 136 916 l 271 610 l 407 916 l 543 916 l 339 458 l 339 0 l 203 0 l 203 458 m 356 1187 l 492 1187 l 186 983 l 51 983 l 356 1187 z "},"Þ":{"ha":646,"x_min":0,"x_max":544,"o":"m 136 713 l 408 713 q 509 645 475 713 q 544 475 544 577 q 509 306 543 374 q 408 238 475 238 l 205 238 l 205 306 l 340 306 q 391 358 374 309 q 408 475 408 408 q 391 594 408 543 q 340 645 374 645 l 137 645 l 137 0 l 0 0 l 1 713 l 1 916 l 136 916 l 136 713 z "},"ß":{"ha":646,"x_min":0,"x_max":544,"o":"m 136 0 l 1 0 l 0 678 q 34 847 0 779 q 136 916 68 916 l 408 916 q 510 847 475 916 q 544 678 544 779 q 510 509 544 577 q 486 475 500 489 q 510 441 500 460 q 544 271 544 372 q 510 68 544 136 q 408 0 475 0 l 204 0 l 204 68 l 340 68 q 392 120 375 71 q 408 271 408 170 q 391 390 408 339 q 340 441 374 441 l 204 441 l 204 509 l 340 509 q 392 561 375 512 q 408 678 408 610 q 391 797 408 746 q 340 848 374 848 l 203 848 q 153 797 170 848 q 136 678 136 746 l 136 0 z "},"à":{"ha":678,"x_min":0,"x_max":576,"o":"m 576 509 l 576 0 l 136 0 q 34 51 68 0 q 0 203 0 102 q 34 356 0 305 q 135 406 68 406 l 372 406 l 373 339 l 203 339 q 153 305 170 338 q 136 203 136 271 q 153 102 136 136 q 203 68 170 68 l 440 68 l 441 509 q 424 610 441 576 q 373 644 407 644 l 136 644 l 136 712 l 441 712 q 543 661 509 712 q 576 509 576 610 m 509 780 l 373 780 l 68 983 l 203 983 l 509 780 z "},"á":{"ha":678,"x_min":0,"x_max":576,"o":"m 576 509 l 576 0 l 136 0 q 34 51 68 0 q 0 203 0 102 q 34 356 0 305 q 135 406 68 406 l 372 406 l 373 339 l 203 339 q 153 305 170 338 q 136 203 136 271 q 153 102 136 136 q 203 68 170 68 l 440 68 l 441 509 q 424 610 441 576 q 373 644 407 644 l 136 644 l 136 712 l 441 712 q 543 661 509 712 q 576 509 576 610 m 373 983 l 509 983 l 203 780 l 68 780 l 373 983 z "},"â":{"ha":678,"x_min":0,"x_max":576,"o":"m 576 509 l 576 0 l 136 0 q 34 51 68 0 q 0 203 0 102 q 34 356 0 305 q 135 406 68 406 l 372 406 l 373 339 l 203 339 q 153 305 170 338 q 136 203 136 271 q 153 102 136 136 q 203 68 170 68 l 440 68 l 441 509 q 424 610 441 576 q 373 644 407 644 l 136 644 l 136 712 l 441 712 q 543 661 509 712 q 576 509 576 610 m 288 907 l 203 780 l 68 780 l 203 983 l 373 983 l 509 780 l 373 780 l 288 907 z "},"ã":{"ha":678,"x_min":0,"x_max":576,"o":"m 576 509 l 576 0 l 136 0 q 34 51 68 0 q 0 203 0 102 q 34 356 0 305 q 135 406 68 406 l 372 406 l 373 339 l 203 339 q 153 305 170 338 q 136 203 136 271 q 153 102 136 136 q 203 68 170 68 l 440 68 l 441 509 q 424 610 441 576 q 373 644 407 644 l 136 644 l 136 712 l 441 712 q 543 661 509 712 q 576 509 576 610 m 220 950 q 389 916 355 916 q 457 984 423 916 l 559 916 q 423 814 490 814 l 355 814 q 185 848 254 847 q 119 780 151 848 l 17 848 q 152 949 84 949 l 220 950 z "},"ä":{"ha":678,"x_min":0,"x_max":576,"o":"m 576 509 l 576 0 l 136 0 q 34 51 68 0 q 0 203 0 102 q 34 356 0 305 q 135 406 68 406 l 372 406 l 373 339 l 203 339 q 153 305 170 338 q 136 203 136 271 q 153 102 136 136 q 203 68 170 68 l 440 68 l 441 509 q 424 610 441 576 q 373 644 407 644 l 136 644 l 136 712 l 441 712 q 543 661 509 712 q 576 509 576 610 m 85 916 l 220 916 l 220 780 l 85 780 l 85 916 m 356 916 l 492 916 l 492 780 l 356 780 l 356 916 z "},"å":{"ha":678,"x_min":0,"x_max":576,"o":"m 576 509 l 576 0 l 136 0 q 34 51 68 0 q 0 203 0 102 q 34 356 0 305 q 135 406 68 406 l 372 406 l 373 339 l 203 339 q 153 305 170 338 q 136 203 136 271 q 153 102 136 136 q 203 68 170 68 l 440 68 l 441 509 q 424 610 441 576 q 373 644 407 644 l 136 644 l 136 712 l 441 712 q 543 661 509 712 q 576 509 576 610 m 220 916 l 356 916 l 356 780 l 220 780 l 220 916 z "},"æ":{"ha":983,"x_min":0,"x_max":882,"o":"m 373 509 q 356 610 373 576 q 305 644 339 644 l 136 644 l 136 712 l 373 712 q 441 694 413 712 q 509 712 469 712 l 746 712 q 848 661 814 712 q 882 509 882 610 q 848 356 882 407 q 747 306 814 306 l 577 306 l 576 373 l 678 373 q 728 407 711 374 q 746 509 745 441 q 729 610 746 576 q 678 644 712 644 l 576 644 q 526 610 543 644 q 509 509 509 576 l 509 203 q 526 102 509 136 q 576 68 543 68 l 814 68 l 814 0 l 136 0 q 34 51 68 0 q 0 203 0 102 q 34 356 0 305 q 135 406 68 406 l 304 406 l 305 339 l 203 339 q 153 305 170 338 q 136 203 136 271 q 153 102 136 136 q 203 68 170 68 l 372 68 l 373 509 z "},"ç":{"ha":576,"x_min":0,"x_max":475,"o":"m 238 0 l 134 0 q 34 68 67 0 q 0 203 0 136 l 0 509 q 34 644 0 576 q 135 712 68 712 l 475 712 l 475 644 l 237 644 q 152 593 169 644 q 136 474 136 542 l 136 237 q 152 119 136 170 q 236 68 169 68 l 474 68 l 474 0 l 373 0 l 373 -68 l 372 -68 q 339 -254 372 -171 q 237 -339 305 -339 l 102 -339 l 102 -271 l 170 -271 q 225 -201 212 -266 q 237 -68 237 -136 l 238 0 z "},"è":{"ha":678,"x_min":0,"x_max":576,"o":"m 0 203 l 0 509 q 34 661 0 610 q 136 712 68 712 l 441 712 q 543 661 509 712 q 576 509 576 610 q 543 356 576 407 q 441 306 509 306 l 204 306 l 203 373 l 373 373 q 423 407 406 374 q 441 509 440 441 q 424 610 441 576 q 373 644 407 644 l 203 644 q 153 610 170 644 q 136 509 136 576 l 136 203 q 153 102 136 136 q 203 68 170 68 l 509 68 l 509 0 l 136 0 q 34 51 68 0 q 0 203 0 102 m 509 780 l 373 780 l 68 983 l 203 983 l 509 780 z "},"é":{"ha":678,"x_min":0,"x_max":576,"o":"m 0 203 l 0 509 q 34 661 0 610 q 136 712 68 712 l 441 712 q 543 661 509 712 q 576 509 576 610 q 543 356 576 407 q 441 306 509 306 l 204 306 l 203 373 l 373 373 q 423 407 406 374 q 441 509 440 441 q 424 610 441 576 q 373 644 407 644 l 203 644 q 153 610 170 644 q 136 509 136 576 l 136 203 q 153 102 136 136 q 203 68 170 68 l 509 68 l 509 0 l 136 0 q 34 51 68 0 q 0 203 0 102 m 373 983 l 509 983 l 203 780 l 68 780 l 373 983 z "},"ê":{"ha":678,"x_min":0,"x_max":576,"o":"m 0 203 l 0 509 q 34 661 0 610 q 136 712 68 712 l 441 712 q 543 661 509 712 q 576 509 576 610 q 543 356 576 407 q 441 306 509 306 l 204 306 l 203 373 l 373 373 q 423 407 406 374 q 441 509 440 441 q 424 610 441 576 q 373 644 407 644 l 203 644 q 153 610 170 644 q 136 509 136 576 l 136 203 q 153 102 136 136 q 203 68 170 68 l 509 68 l 509 0 l 136 0 q 34 51 68 0 q 0 203 0 102 m 288 907 l 203 780 l 68 780 l 203 983 l 373 983 l 509 780 l 373 780 l 288 907 z "},"ë":{"ha":678,"x_min":0,"x_max":576,"o":"m 0 203 l 0 509 q 34 661 0 610 q 136 712 68 712 l 441 712 q 543 661 509 712 q 576 509 576 610 q 543 356 576 407 q 441 306 509 306 l 204 306 l 203 373 l 373 373 q 423 407 406 374 q 441 509 440 441 q 424 610 441 576 q 373 644 407 644 l 203 644 q 153 610 170 644 q 136 509 136 576 l 136 203 q 153 102 136 136 q 203 68 170 68 l 509 68 l 509 0 l 136 0 q 34 51 68 0 q 0 203 0 102 m 85 916 l 220 916 l 220 780 l 85 780 l 85 916 m 356 916 l 492 916 l 492 780 l 356 780 l 356 916 z "},"ì":{"ha":543,"x_min":0,"x_max":441,"o":"m 288 0 l 153 0 l 153 712 l 288 711 l 288 0 m 441 780 l 305 780 l 0 983 l 136 983 l 441 780 z "},"í":{"ha":543,"x_min":0,"x_max":441,"o":"m 288 0 l 153 0 l 153 712 l 288 711 l 288 0 m 305 983 l 441 983 l 136 780 l 0 780 l 305 983 z "},"î":{"ha":543,"x_min":0,"x_max":441,"o":"m 288 0 l 153 0 l 153 712 l 288 711 l 288 0 m 220 907 l 136 780 l 0 780 l 136 983 l 305 983 l 441 780 l 305 780 l 220 907 z "},"ï":{"ha":509,"x_min":0,"x_max":407,"o":"m 271 0 l 136 0 l 136 712 l 271 711 l 271 0 m 0 916 l 136 916 l 136 780 l 0 780 l 0 916 m 271 916 l 407 916 l 407 780 l 271 780 l 271 916 z "},"ð":{"ha":814,"x_min":0,"x_max":712,"o":"m 440 848 l 440 916 l 576 916 l 576 848 l 712 848 l 712 780 l 576 780 l 576 0 l 136 0 q 34 68 68 0 q 0 204 0 136 l 0 509 q 34 644 0 576 q 135 712 68 712 l 372 712 l 372 644 l 237 644 q 153 593 170 644 q 136 475 136 543 l 136 237 q 153 119 136 170 q 237 68 170 68 l 440 68 l 440 780 l 305 780 l 305 848 l 440 848 z "},"ñ":{"ha":679,"x_min":0,"x_max":577,"o":"m 441 475 q 424 594 441 543 q 340 644 407 644 l 136 644 l 136 0 l 0 0 l 0 712 l 441 712 q 543 644 509 712 q 577 509 577 576 l 576 0 l 441 0 l 441 475 m 220 950 q 390 916 356 916 q 458 984 424 916 l 559 916 q 424 814 491 814 l 355 814 q 186 848 254 847 q 119 780 152 848 l 18 848 q 153 949 85 949 l 220 950 z "},"ò":{"ha":678,"x_min":0,"x_max":576,"o":"m 576 203 q 543 68 576 136 q 441 0 509 0 l 136 0 q 34 68 68 0 q 0 203 0 136 l 0 509 q 34 644 0 576 q 136 712 68 712 l 441 712 q 543 644 509 712 q 576 508 576 576 l 576 203 m 441 237 l 441 475 q 424 593 441 543 q 339 644 407 644 l 237 644 q 153 593 170 644 q 136 474 136 542 l 136 237 q 153 118 136 169 q 237 68 170 68 l 339 68 q 424 119 407 68 q 441 237 441 170 m 509 780 l 374 780 l 68 983 l 204 983 l 509 780 z "},"ó":{"ha":678,"x_min":0,"x_max":576,"o":"m 576 203 q 543 68 576 136 q 441 0 509 0 l 136 0 q 34 68 68 0 q 0 203 0 136 l 0 509 q 34 644 0 576 q 136 712 68 712 l 441 712 q 543 644 509 712 q 576 508 576 576 l 576 203 m 441 237 l 441 475 q 424 593 441 543 q 339 644 407 644 l 237 644 q 153 593 170 644 q 136 474 136 542 l 136 237 q 153 118 136 169 q 237 68 170 68 l 339 68 q 424 119 407 68 q 441 237 441 170 m 374 983 l 509 983 l 204 780 l 68 780 l 374 983 z "},"ô":{"ha":678,"x_min":0,"x_max":576,"o":"m 576 203 q 543 68 576 136 q 441 0 509 0 l 136 0 q 34 68 68 0 q 0 203 0 136 l 0 509 q 34 644 0 576 q 136 712 68 712 l 441 712 q 543 644 509 712 q 576 508 576 576 l 576 203 m 441 237 l 441 475 q 424 593 441 543 q 339 644 407 644 l 237 644 q 153 593 170 644 q 136 474 136 542 l 136 237 q 153 118 136 169 q 237 68 170 68 l 339 68 q 424 119 407 68 q 441 237 441 170 m 289 907 l 204 780 l 68 780 l 204 983 l 374 983 l 509 780 l 374 780 l 289 907 z "},"õ":{"ha":678,"x_min":0,"x_max":576,"o":"m 576 203 q 543 68 576 136 q 441 0 509 0 l 136 0 q 34 68 68 0 q 0 203 0 136 l 0 509 q 34 644 0 576 q 136 712 68 712 l 441 712 q 543 644 509 712 q 576 508 576 576 l 576 203 m 441 237 l 441 475 q 424 593 441 543 q 339 644 407 644 l 237 644 q 153 593 170 644 q 136 474 136 542 l 136 237 q 153 118 136 169 q 237 68 170 68 l 339 68 q 424 119 407 68 q 441 237 441 170 m 220 950 q 390 916 356 916 q 458 984 424 916 l 559 916 q 424 814 491 814 l 355 814 q 186 848 254 847 q 119 780 152 848 l 18 848 q 153 949 85 949 l 220 950 z "},"ö":{"ha":678,"x_min":0,"x_max":576,"o":"m 576 203 q 543 68 576 136 q 441 0 509 0 l 136 0 q 34 68 68 0 q 0 203 0 136 l 0 509 q 34 644 0 576 q 136 712 68 712 l 441 712 q 543 644 509 712 q 576 508 576 576 l 576 203 m 441 237 l 441 475 q 424 593 441 543 q 339 644 407 644 l 237 644 q 153 593 170 644 q 136 474 136 542 l 136 237 q 153 118 136 169 q 237 68 170 68 l 339 68 q 424 119 407 68 q 441 237 441 170 m 85 916 l 221 916 l 221 780 l 85 780 l 85 916 m 357 916 l 492 916 l 492 780 l 357 780 l 357 916 z "},"÷":{"ha":509,"x_min":0,"x_max":407,"o":"m 0 509 l 407 509 l 407 441 l 0 441 l 0 509 m 136 746 l 271 746 l 271 610 l 136 610 l 136 746 m 136 203 l 136 339 l 271 339 l 271 203 l 136 203 z "},"ø":{"ha":679,"x_min":0,"x_max":577,"o":"m 185 79 q 237 68 205 68 l 339 68 q 424 119 407 68 q 441 237 441 170 l 441 492 l 185 79 m 539 650 q 543 644 541 648 q 576 508 576 576 l 576 203 q 543 68 576 136 q 441 0 509 0 l 1 0 l 38 60 q 35 68 36 64 q 0 203 0 136 l 0 509 q 34 644 0 576 q 136 712 68 712 l 577 712 l 539 650 m 392 633 q 339 644 372 644 l 237 644 q 153 593 170 644 q 136 474 136 542 l 136 220 l 392 633 z "},"ù":{"ha":679,"x_min":0,"x_max":577,"o":"m 136 237 q 153 118 136 169 q 237 68 170 68 l 441 68 l 441 712 l 577 712 l 577 0 l 136 0 q 34 68 68 0 q 0 203 0 136 l 1 712 l 136 712 l 136 237 m 509 780 l 374 780 l 68 983 l 204 983 l 509 780 z "},"ú":{"ha":679,"x_min":0,"x_max":577,"o":"m 136 237 q 153 118 136 169 q 237 68 170 68 l 441 68 l 441 712 l 577 712 l 577 0 l 136 0 q 34 68 68 0 q 0 203 0 136 l 1 712 l 136 712 l 136 237 m 374 983 l 509 983 l 204 780 l 68 780 l 374 983 z "},"û":{"ha":679,"x_min":0,"x_max":577,"o":"m 136 237 q 153 118 136 169 q 237 68 170 68 l 441 68 l 441 712 l 577 712 l 577 0 l 136 0 q 34 68 68 0 q 0 203 0 136 l 1 712 l 136 712 l 136 237 m 289 907 l 204 780 l 68 780 l 204 983 l 374 983 l 509 780 l 374 780 l 289 907 z "},"ü":{"ha":679,"x_min":0,"x_max":577,"o":"m 136 237 q 153 118 136 169 q 237 68 170 68 l 441 68 l 441 712 l 577 712 l 577 0 l 136 0 q 34 68 68 0 q 0 203 0 136 l 1 712 l 136 712 l 136 237 m 85 916 l 221 916 l 221 780 l 85 780 l 85 916 m 357 916 l 492 916 l 492 780 l 357 780 l 357 916 z "},"ý":{"ha":644,"x_min":0,"x_max":543,"o":"m 270 241 l 407 712 l 543 712 l 338 5 l 339 0 l 336 0 l 237 -339 l 102 -339 l 202 5 l 0 712 l 136 712 l 270 241 m 373 983 l 509 983 l 203 780 l 68 780 l 373 983 z "},"þ":{"ha":677,"x_min":0,"x_max":576,"o":"m 136 -339 l 0 -339 l 0 916 l 136 916 l 136 712 l 440 712 q 542 644 508 712 q 576 508 576 576 l 576 203 q 542 68 576 136 q 441 0 508 0 l 203 0 l 203 68 l 339 68 q 423 119 406 68 q 440 237 440 170 l 440 475 q 423 593 440 543 q 338 644 406 644 l 136 644 l 136 -339 z "},"ÿ":{"ha":644,"x_min":0,"x_max":543,"o":"m 270 241 l 407 712 l 543 712 l 338 5 l 339 0 l 336 0 l 237 -339 l 102 -339 l 202 5 l 0 712 l 136 712 l 270 241 m 68 916 l 203 916 l 203 780 l 68 780 l 68 916 m 339 916 l 475 916 l 475 780 l 339 780 l 339 916 z "},"ı":{"ha":237,"x_min":0,"x_max":136,"o":"m 136 0 l 0 0 l 0 712 l 136 711 l 136 0 z "},"ˆ":{"ha":543,"x_min":0,"x_max":441,"o":"m 220 1111 l 136 983 l 0 983 l 136 1187 l 305 1187 l 441 983 l 305 983 l 220 1111 z "},"ˇ":{"ha":543,"x_min":0,"x_max":441,"o":"m 220 1060 l 305 1187 l 441 1187 l 305 983 l 136 983 l 0 1187 l 136 1187 l 220 1060 z "},"ˉ":{"ha":452,"x_min":0,"x_max":350,"o":"m 0 810 l 0 895 l 350 895 l 350 810 l 0 810 z "},"˘":{"ha":498,"x_min":0,"x_max":396,"o":"m 0 915 l 35 915 q 85 842 46 865 q 199 819 125 819 q 311 842 273 819 q 361 915 350 865 l 396 915 q 332 778 382 825 q 199 732 282 732 q 65 779 116 732 q 0 915 14 825 z "},"˙":{"ha":237,"x_min":0,"x_max":136,"o":"m 0 1119 l 136 1119 l 136 983 l 0 983 l 0 1119 z "},"˚":{"ha":237,"x_min":0,"x_max":136,"o":"m 0 1119 l 136 1119 l 136 983 l 0 983 l 0 1119 z "},"˛":{"ha":373,"x_min":0,"x_max":271,"o":"m 136 -68 q 148 -201 136 -136 q 203 -271 161 -266 l 271 -271 l 271 -339 l 136 -339 q 35 -254 68 -339 q 1 -68 1 -171 l 0 -68 l 0 0 l 135 0 l 136 -68 z "},"˜":{"ha":644,"x_min":0,"x_max":542,"o":"m 203 1154 q 372 1119 338 1119 q 440 1187 406 1119 l 542 1120 q 406 1017 473 1018 l 338 1017 q 168 1051 237 1050 q 102 983 134 1051 l 0 1051 q 135 1153 67 1153 l 203 1154 z "},"˝":{"ha":576,"x_min":0,"x_max":475,"o":"m 340 983 l 204 983 l 340 1187 l 475 1187 l 340 983 m 136 983 l 0 983 l 136 1187 l 271 1187 l 136 983 z "},"–":{"ha":777,"x_min":0,"x_max":675,"o":"m 0 284 l 0 366 l 675 366 l 675 284 l 0 284 z "},"—":{"ha":1491,"x_min":0,"x_max":1389,"o":"m 0 284 l 0 366 l 1389 366 l 1389 284 l 0 284 z "},"‘":{"ha":238,"x_min":0,"x_max":136,"o":"m 136 644 l 0 644 l 1 916 l 68 916 l 136 780 l 136 644 z "},"’":{"ha":238,"x_min":0,"x_max":136,"o":"m 0 916 l 136 916 l 136 644 l 68 644 l 0 780 l 0 916 z "},"‚":{"ha":238,"x_min":0,"x_max":136,"o":"m 0 136 l 136 136 l 136 -136 l 68 -136 l 0 0 l 0 136 z "},"“":{"ha":441,"x_min":0,"x_max":340,"o":"m 340 644 l 204 644 l 204 916 l 272 916 l 340 780 l 340 644 m 136 644 l 0 644 l 1 916 l 68 916 l 136 780 l 136 644 z "},"”":{"ha":441,"x_min":0,"x_max":340,"o":"m 0 916 l 136 916 l 136 644 l 68 644 l 0 780 l 0 916 m 203 916 l 340 916 l 339 644 l 271 644 l 203 780 l 203 916 z "},"„":{"ha":441,"x_min":0,"x_max":340,"o":"m 0 136 l 136 136 l 136 -136 l 68 -136 l 0 0 l 0 136 m 203 136 l 340 136 l 339 -136 l 271 -136 l 203 0 l 203 136 z "},"†":{"ha":694,"x_min":0,"x_max":592,"o":"m 281 693 q 245 814 276 759 q 206 901 206 882 q 231 955 206 935 q 296 975 255 975 q 360 956 334 975 q 385 907 385 937 q 348 814 385 886 q 311 693 317 757 q 431 730 376 699 q 518 768 499 768 q 572 744 551 768 q 592 679 592 720 q 573 615 592 640 q 524 589 555 589 q 432 627 503 589 q 311 665 374 658 q 385 477 316 546 q 309 -183 313 165 l 283 -183 q 206 477 279 165 q 281 665 275 546 q 161 628 216 659 q 73 589 92 589 q 20 614 40 589 q 0 679 0 638 q 19 743 0 718 q 67 768 37 768 q 160 730 89 768 q 281 693 218 699 z "},"‡":{"ha":694,"x_min":0,"x_max":592,"o":"m 311 126 q 432 165 374 134 q 524 202 503 202 q 573 177 555 202 q 592 113 592 151 q 572 47 592 72 q 518 23 551 23 q 431 62 499 23 q 311 98 376 93 q 348 -23 317 35 q 385 -116 385 -94 q 360 -164 385 -146 q 296 -183 334 -183 q 231 -163 255 -183 q 206 -110 206 -143 q 245 -22 206 -91 q 281 98 276 33 q 160 61 218 92 q 67 23 89 23 q 19 48 37 23 q 0 113 0 74 q 20 178 0 153 q 73 202 40 202 q 161 163 92 202 q 281 126 216 133 q 206 396 275 279 q 281 665 275 512 q 161 628 216 659 q 73 589 92 589 q 20 614 40 589 q 0 679 0 638 q 19 743 0 718 q 67 768 37 768 q 160 730 89 768 q 281 693 218 699 q 245 814 276 759 q 206 901 206 882 q 231 955 206 935 q 296 975 255 975 q 360 956 334 975 q 385 907 385 937 q 348 814 385 886 q 311 693 317 757 q 431 730 376 699 q 518 768 499 768 q 572 744 551 768 q 592 679 592 720 q 573 615 592 640 q 524 589 555 589 q 432 627 503 589 q 311 665 374 658 q 385 396 316 512 q 311 126 316 279 z "},"•":{"ha":503,"x_min":0,"x_max":401,"o":"m 0 487 q 59 629 0 570 q 201 687 118 687 q 343 628 284 687 q 401 487 401 570 q 342 345 401 404 q 200 286 283 286 q 58 345 117 286 q 0 487 0 404 z "},"…":{"ha":645,"x_min":0,"x_max":543,"o":"m 136 0 l 1 0 l 0 136 l 136 136 l 136 0 m 340 0 l 204 0 l 203 136 l 340 136 l 340 0 m 543 0 l 408 0 l 407 136 l 543 136 l 543 0 z "},"‹":{"ha":509,"x_min":0,"x_max":407,"o":"m 0 475 l 271 678 l 407 678 l 136 475 l 407 271 l 271 271 l 0 475 z "},"›":{"ha":509,"x_min":0,"x_max":407,"o":"m 136 271 l 0 271 l 271 475 l 0 678 l 136 678 l 407 475 l 136 271 z "},"⁄":{"ha":644,"x_min":0,"x_max":543,"o":"m 407 916 l 543 916 l 136 0 l 0 0 l 407 916 z "},"∕":{"ha":644,"x_min":0,"x_max":543,"o":"m 407 916 l 543 916 l 136 0 l 0 0 l 407 916 z "},"₣":{"ha":678,"x_min":0,"x_max":576,"o":"m 271 136 l 271 0 l 136 0 l 136 136 l 0 136 l 0 203 l 136 203 l 136 916 l 576 916 l 576 848 l 271 848 l 271 508 l 474 508 l 474 441 l 271 441 l 271 203 l 407 203 l 407 136 l 271 136 z "},"₤":{"ha":576,"x_min":0,"x_max":475,"o":"m 0 0 l 0 68 l 136 68 l 136 441 l 0 441 l 0 509 l 136 509 l 136 678 q 170 848 136 780 q 271 916 203 916 l 475 916 l 475 848 l 338 848 q 288 797 304 848 q 272 679 272 746 l 272 509 l 475 509 l 475 441 l 271 441 l 271 68 l 475 68 l 475 0 l 0 0 z "},"₧":{"ha":780,"x_min":0,"x_max":678,"o":"m 135 203 l 135 916 l 543 916 q 644 848 609 916 q 678 678 678 780 q 644 509 677 577 q 542 441 610 441 l 339 441 l 339 509 l 474 509 q 525 561 509 512 q 543 677 542 610 q 525 797 543 746 q 474 848 508 848 l 271 848 l 271 203 l 407 203 l 407 136 l 271 136 l 271 0 l 135 0 l 135 136 l 0 136 l 0 203 l 135 203 z "},"€":{"ha":713,"x_min":0,"x_max":611,"o":"m 136 610 l 136 712 q 170 847 136 779 q 271 916 204 916 l 611 916 l 611 848 l 373 848 q 289 797 305 848 q 272 677 272 745 l 272 610 l 408 610 l 408 543 l 272 543 l 272 407 l 408 407 l 408 339 l 272 339 l 272 237 q 289 118 272 169 q 373 68 306 68 l 611 68 l 611 0 l 271 0 q 170 68 204 0 q 136 203 136 136 l 136 339 l 0 339 l 0 407 l 136 407 l 136 543 l 0 543 l 0 610 l 136 610 z "},"№":{"ha":729,"x_min":0,"x_max":627,"o":"m 68 814 l 68 458 l 0 458 l 0 916 l 102 916 l 220 559 l 220 916 l 288 916 l 288 458 l 186 458 l 68 814 m 627 559 q 610 492 627 526 q 560 458 593 458 l 407 458 q 356 492 374 458 q 339 559 339 526 l 339 814 q 356 882 339 848 q 407 916 374 916 l 559 916 q 610 882 593 916 q 627 814 627 848 l 627 559 m 559 576 l 560 797 q 551 857 560 831 q 509 882 543 882 l 458 882 q 416 856 424 882 q 408 797 408 831 l 408 576 q 416 517 408 543 q 458 492 425 492 l 509 492 q 551 517 543 492 q 559 576 559 543 z "},"™":{"ha":763,"x_min":0,"x_max":661,"o":"m 272 882 l 170 882 l 170 458 l 102 458 l 102 882 l 1 882 l 0 916 l 272 916 l 272 882 m 390 732 l 390 458 l 322 458 l 322 916 l 424 916 l 492 549 l 559 916 l 661 916 l 661 458 l 593 458 l 593 732 l 543 458 l 441 458 l 390 732 z "},"∂":{"ha":1119,"x_min":0,"x_max":1017,"o":"m 136 0 q 0 136 0 0 l 0 882 q 136 1017 0 1017 l 882 1017 q 1017 882 1017 1017 l 1017 136 q 882 0 1017 0 l 136 0 m 882 17 q 1000 136 1000 17 l 1000 882 q 882 1000 1000 1000 l 136 1000 q 17 882 18 1000 l 17 136 q 136 17 18 17 l 882 17 z "},"∆":{"ha":1119,"x_min":0,"x_max":1017,"o":"m 136 0 q 0 136 0 0 l 0 882 q 136 1017 0 1017 l 882 1017 q 1017 882 1017 1017 l 1017 136 q 882 0 1017 0 l 136 0 m 882 17 q 1000 136 1000 17 l 1000 882 q 882 1000 1000 1000 l 136 1000 q 17 882 18 1000 l 17 136 q 136 17 18 17 l 882 17 z "},"∏":{"ha":1119,"x_min":0,"x_max":1017,"o":"m 136 0 q 0 136 0 0 l 0 882 q 136 1017 0 1017 l 882 1017 q 1017 882 1017 1017 l 1017 136 q 882 0 1017 0 l 136 0 m 882 17 q 1000 136 1000 17 l 1000 882 q 882 1000 1000 1000 l 136 1000 q 17 882 18 1000 l 17 136 q 136 17 18 17 l 882 17 z "},"∑":{"ha":1119,"x_min":0,"x_max":1017,"o":"m 136 0 q 0 136 0 0 l 0 882 q 136 1017 0 1017 l 882 1017 q 1017 882 1017 1017 l 1017 136 q 882 0 1017 0 l 136 0 m 882 17 q 1000 136 1000 17 l 1000 882 q 882 1000 1000 1000 l 136 1000 q 17 882 18 1000 l 17 136 q 136 17 18 17 l 882 17 z "},"−":{"ha":671,"x_min":0,"x_max":570,"o":"m 0 439 l 0 534 l 569 534 l 570 533 l 570 439 l 0 439 z "},"≈":{"ha":1119,"x_min":0,"x_max":1017,"o":"m 136 0 q 0 136 0 0 l 0 882 q 136 1017 0 1017 l 882 1017 q 1017 882 1017 1017 l 1017 136 q 882 0 1017 0 l 136 0 m 882 17 q 1000 136 1000 17 l 1000 882 q 882 1000 1000 1000 l 136 1000 q 17 882 18 1000 l 17 136 q 136 17 18 17 l 882 17 z "},"≤":{"ha":1119,"x_min":0,"x_max":1017,"o":"m 136 0 q 0 136 0 0 l 0 882 q 136 1017 0 1017 l 882 1017 q 1017 882 1017 1017 l 1017 136 q 882 0 1017 0 l 136 0 m 882 17 q 1000 136 1000 17 l 1000 882 q 882 1000 1000 1000 l 136 1000 q 17 882 18 1000 l 17 136 q 136 17 18 17 l 882 17 z "},"≥":{"ha":1119,"x_min":0,"x_max":1017,"o":"m 136 0 q 0 136 0 0 l 0 882 q 136 1017 0 1017 l 882 1017 q 1017 882 1017 1017 l 1017 136 q 882 0 1017 0 l 136 0 m 882 17 q 1000 136 1000 17 l 1000 882 q 882 1000 1000 1000 l 136 1000 q 17 882 18 1000 l 17 136 q 136 17 18 17 l 882 17 z "},"":{"ha":102,"x_min":0,"x_max":0,"o":""},"ﬁ":{"ha":102,"x_min":0,"x_max":0,"o":""},"":{"ha":102,"x_min":0,"x_max":0,"o":""},"ﬂ":{"ha":102,"x_min":0,"x_max":0,"o":""},"Œ":{"ha":983,"x_min":0,"x_max":882,"o":"m 441 237 l 441 678 q 424 797 441 747 q 339 848 407 848 l 237 848 q 153 797 170 848 q 136 677 136 745 l 136 237 q 153 118 136 169 q 237 68 170 68 l 339 68 q 424 119 407 68 q 441 237 441 170 m 136 0 q 34 68 68 0 q 0 203 0 136 l 0 712 q 34 847 0 779 q 136 916 68 916 l 882 916 l 882 848 l 576 848 l 576 508 l 779 508 l 779 441 l 576 441 l 576 68 l 882 68 l 882 0 l 136 0 z "},"œ":{"ha":1119,"x_min":0,"x_max":1017,"o":"m 441 237 l 441 475 q 424 593 441 543 q 339 644 407 644 l 237 644 q 153 593 170 644 q 136 474 136 542 l 136 237 q 153 118 136 169 q 237 68 170 68 l 339 68 q 424 119 407 68 q 441 237 441 170 m 505 20 q 441 0 478 0 l 136 0 q 34 68 68 0 q 0 203 0 136 l 0 509 q 34 644 0 576 q 136 712 68 712 l 441 712 q 505 692 477 712 q 576 712 534 712 l 882 712 q 983 661 949 712 q 1017 509 1017 610 q 983 356 1017 407 q 882 306 949 306 l 645 306 l 644 373 l 814 373 q 864 407 847 374 q 882 509 881 441 q 865 610 882 576 q 814 644 848 644 l 644 644 q 594 610 611 644 q 576 509 576 576 l 576 203 q 593 102 576 136 q 644 68 610 68 l 949 68 l 949 0 l 576 0 q 505 20 534 0 z "},"‰":{"ha":1187,"x_min":0,"x_max":1085,"o":"m 610 238 q 593 357 610 306 q 509 408 576 408 q 424 356 441 408 q 408 237 408 305 q 424 119 408 169 q 508 68 441 68 q 593 119 576 68 q 610 238 610 170 m 338 679 q 321 798 338 747 q 237 848 304 848 q 153 797 170 848 q 136 678 136 746 q 153 559 136 610 q 237 509 170 509 q 321 560 304 509 q 338 679 338 610 m 848 408 q 763 356 780 408 q 747 237 747 305 q 763 119 747 169 q 847 68 780 68 l 848 68 q 932 119 916 68 q 949 237 949 169 q 932 356 949 305 q 848 408 916 408 m 678 24 q 610 0 650 0 l 407 0 q 306 68 340 0 q 287 112 294 90 l 237 0 l 102 0 l 298 441 l 136 441 q 34 509 68 441 q 0 644 0 576 l 0 713 q 34 848 0 780 q 136 916 68 916 l 338 916 q 440 848 406 916 q 458 804 451 825 l 509 916 l 644 916 l 449 475 l 610 475 q 678 452 650 475 q 746 475 706 475 l 949 475 q 1051 407 1017 475 q 1085 272 1085 339 l 1085 203 q 1051 68 1085 136 q 949 0 1017 0 l 746 0 q 678 24 706 0 z "}}}
